<svg width="29" height="24" viewBox="0 0 29 24" fill="none" xmlns="http://www.w3.org/2000/svg">
<path d="M20.9154 4.5H8.52539C8.29067 4.5 8.06556 4.42098 7.89959 4.28033C7.73362 4.13968 7.64038 3.94891 7.64038 3.75C7.64038 3.55109 7.73362 3.36032 7.89959 3.21967C8.06556 3.07902 8.29067 3 8.52539 3H20.9154C21.1502 3 21.3753 3.07902 21.5412 3.21967C21.7072 3.36032 21.8004 3.55109 21.8004 3.75C21.8004 3.94891 21.7072 4.13968 21.5412 4.28033C21.3753 4.42098 21.1502 4.5 20.9154 4.5Z" fill="#100D0D" fill-opacity="0.9"/>
<path d="M22.6854 6.75H6.75537C6.52065 6.75 6.29554 6.67098 6.12957 6.53033C5.9636 6.38968 5.87036 6.19891 5.87036 6C5.87036 5.80109 5.9636 5.61032 6.12957 5.46967C6.29554 5.32902 6.52065 5.25 6.75537 5.25H22.6854C22.9202 5.25 23.1453 5.32902 23.3112 5.46967C23.4772 5.61032 23.5704 5.80109 23.5704 6C23.5704 6.19891 23.4772 6.38968 23.3112 6.53033C23.1453 6.67098 22.9202 6.75 22.6854 6.75Z" fill="#100D0D" fill-opacity="0.9"/>
<path d="M23.7436 21H5.69722C5.0392 20.9994 4.40835 20.7776 3.94307 20.3833C3.47778 19.989 3.21606 19.4544 3.21533 18.8967V9.60328C3.21606 9.04565 3.47778 8.51103 3.94307 8.11672C4.40835 7.72241 5.0392 7.50062 5.69722 7.5H23.7436C24.4016 7.50062 25.0324 7.72241 25.4977 8.11672C25.963 8.51103 26.2247 9.04565 26.2254 9.60328V18.8967C26.2247 19.4544 25.963 19.989 25.4977 20.3833C25.0324 20.7776 24.4016 20.9994 23.7436 21V21Z" fill="#100D0D" fill-opacity="0.9"/>
</svg>
