<svg width="55" height="23" viewBox="0 0 55 23" fill="none" xmlns="http://www.w3.org/2000/svg">
<path d="M10.4896 3.38989C11.0286 2.73853 11.4217 1.82886 11.4217 0.919189C11.4217 0.795654 11.4105 0.672119 11.388 0.571045C10.5008 0.604736 9.43389 1.16626 8.79375 1.9187C8.28838 2.49146 7.82793 3.38989 7.82793 4.31079C7.82793 4.44556 7.8504 4.58032 7.86163 4.62524C7.91778 4.63647 8.00762 4.64771 8.09747 4.64771C8.89483 4.64771 9.89434 4.10864 10.4896 3.38989ZM11.1185 4.83862C9.78204 4.83862 8.69268 5.64722 8.00762 5.64722C7.26641 5.64722 6.28936 4.88354 5.13262 4.88354C2.93145 4.88354 0.696587 6.70288 0.696587 10.1394C0.696587 12.2732 1.52764 14.5305 2.54961 15.9905C3.42559 17.2258 4.18926 18.2366 5.28985 18.2366C6.3792 18.2366 6.86211 17.5066 8.221 17.5066C9.60235 17.5066 9.90557 18.2141 11.1185 18.2141C12.3089 18.2141 13.1063 17.1135 13.8587 16.0354C14.701 14.8 15.0491 13.5872 15.0716 13.531C14.993 13.5085 12.7132 12.5764 12.7132 9.95972C12.7132 7.69116 14.5101 6.66919 14.6111 6.59058C13.4207 4.88354 11.6126 4.83862 11.1185 4.83862ZM19.0706 1.82886V18.0344H21.968V12.6775H25.4832C28.7625 12.6775 31.0535 10.4875 31.0535 7.28687C31.0535 4.03003 28.8411 1.82886 25.6067 1.82886H19.0706ZM21.968 4.19849H24.843C26.9319 4.19849 28.1111 5.27661 28.1111 7.28687C28.1111 9.24097 26.8982 10.3416 24.8318 10.3416H21.968V4.19849ZM35.6701 18.2366C37.2761 18.2366 38.6238 17.5403 39.3088 16.3499H39.4997V18.0344H42.1838V9.64526C42.1838 7.05103 40.4094 5.52368 37.2536 5.52368C34.3337 5.52368 32.301 6.8938 32.0764 9.03882H34.7043C34.9626 8.19653 35.8386 7.73608 37.1189 7.73608C38.6238 7.73608 39.4324 8.42114 39.4324 9.64526V10.7009L36.2654 10.8918C33.2781 11.0603 31.6047 12.3518 31.6047 14.553C31.6047 16.7991 33.3005 18.2366 35.6701 18.2366ZM36.49 16.0916C35.2546 16.0916 34.3674 15.4739 34.3674 14.4182C34.3674 13.3962 35.0974 12.8235 36.6584 12.7224L39.4324 12.5315V13.531C39.4324 14.991 38.1745 16.0916 36.49 16.0916ZM45.2844 22.4817C48.0358 22.4817 49.3498 21.4822 50.3942 18.4612L54.8303 5.75952H51.8879L49.0241 15.3953H48.8332L45.9582 5.75952H42.9035L47.2946 18.0793L47.1486 18.6521C46.7892 19.8088 46.1267 20.2581 44.9475 20.2581C44.7565 20.2581 44.341 20.2468 44.1838 20.2244V22.4368C44.3635 22.4705 45.1159 22.4817 45.2844 22.4817Z" fill="white"/>
</svg>
