<svg width="16" height="16" viewBox="0 0 16 16" fill="none" xmlns="http://www.w3.org/2000/svg">
<path fill-rule="evenodd" clip-rule="evenodd" d="M3.417 6.99996H15C15.2652 6.99996 15.5196 7.10532 15.7071 7.29285C15.8946 7.48039 16 7.73474 16 7.99996C16 8.26518 15.8946 8.51953 15.7071 8.70707C15.5196 8.8946 15.2652 8.99996 15 8.99996H3.417L8.008 13.591C8.19577 13.7786 8.30132 14.0331 8.30141 14.2986C8.3015 14.5641 8.19614 14.8187 8.0085 15.0065C7.82086 15.1942 7.56631 15.2998 7.30085 15.2999C7.0354 15.3 6.78077 15.1946 6.593 15.007L0.293 8.70696C0.105529 8.51943 0.000213623 8.26512 0.000213623 7.99996C0.000213623 7.73479 0.105529 7.48049 0.293 7.29296L6.593 0.992959C6.78091 0.805318 7.03566 0.700008 7.30121 0.700196C7.56676 0.700383 7.82136 0.806053 8.009 0.993959C8.19664 1.18186 8.30195 1.43661 8.30176 1.70217C8.30158 1.96772 8.19591 2.22232 8.008 2.40996L3.417 6.99996Z" fill="#6B7280"/>
</svg>
