<svg width="28" height="21" viewBox="0 0 28 21" fill="none" xmlns="http://www.w3.org/2000/svg">
<path d="M20.6644 20.4009C20.6644 20.4009 19.8014 19.3771 19.0822 18.4723C22.2226 17.5914 23.4212 15.639 23.4212 15.639C22.4384 16.2819 21.5034 16.7343 20.6644 17.0438C19.4658 17.5438 18.3151 17.8771 17.1884 18.0676C14.887 18.4962 12.7774 18.3771 10.9795 18.0438C9.61301 17.7819 8.43836 17.4009 7.45548 17.02C6.90411 16.8057 6.30479 16.5438 5.70548 16.2105C5.63356 16.1628 5.56164 16.139 5.48973 16.0914C5.44178 16.0676 5.41781 16.0438 5.39384 16.02C4.96233 15.7819 4.7226 15.6152 4.7226 15.6152C4.7226 15.6152 5.87329 17.52 8.91781 18.4247C8.19863 19.3295 7.31164 20.4009 7.31164 20.4009C2.0137 20.2342 0 16.7819 0 16.7819C0 9.11528 3.45205 2.90105 3.45205 2.90105C6.90411 0.329649 10.1884 0.401077 10.1884 0.401077L10.4281 0.686788C6.11301 1.92487 4.12329 3.80581 4.12329 3.80581C4.12329 3.80581 4.65068 3.52009 5.53767 3.11534C8.10274 1.9963 10.1404 1.68678 10.9795 1.61535C11.1233 1.59154 11.2432 1.56773 11.387 1.56773C12.8493 1.37726 14.5034 1.32964 16.2295 1.52011C18.5068 1.78202 20.9521 2.44868 23.4452 3.80581C23.4452 3.80581 21.5514 2.02011 17.476 0.782025L17.8116 0.401077C17.8116 0.401077 21.0959 0.329649 24.5479 2.90105C24.5479 2.90105 28 9.11528 28 16.7819C28 16.7819 25.9623 20.2342 20.6644 20.4009ZM9.51712 9.28194C8.15068 9.28194 7.07192 10.4724 7.07192 11.9248C7.07192 13.3772 8.17466 14.5676 9.51712 14.5676C10.8836 14.5676 11.9623 13.3772 11.9623 11.9248C11.9863 10.4724 10.8836 9.28194 9.51712 9.28194ZM18.2671 9.28194C16.9007 9.28194 15.8219 10.4724 15.8219 11.9248C15.8219 13.3772 16.9247 14.5676 18.2671 14.5676C19.6336 14.5676 20.7123 13.3772 20.7123 11.9248C20.7123 10.4724 19.6336 9.28194 18.2671 9.28194Z" fill="#111827"/>
</svg>
