<svg width="65" height="28" viewBox="0 0 65 28" fill="none" xmlns="http://www.w3.org/2000/svg">
<path d="M0.382324 0.445107H17.326V7.63636H12.6315V4.67362H7.4458V9.11078H11.9381V13.1585H7.4458V17.7208H9.75696V21.532H0.382324V17.7208H2.65015V4.67362H0.382324V0.445107Z" fill="#52525B"/>
<path d="M17.2983 7.12171H24.0151V17.7208H26.0951V21.532H17.2983V17.7208H19.5516V10.9329H17.2983V7.12171ZM19.3205 2.47591C19.3205 2.1328 19.3831 1.81288 19.5083 1.51615C19.6431 1.21013 19.8261 0.945852 20.0572 0.723299C20.2883 0.500745 20.558 0.324557 20.8661 0.194734C21.1839 0.0649114 21.5258 0 21.8917 0C22.2384 0 22.5658 0.0649114 22.8739 0.194734C23.1821 0.324557 23.4517 0.500745 23.6828 0.723299C23.914 0.945852 24.0969 1.21013 24.2317 1.51615C24.3666 1.81288 24.434 2.1328 24.434 2.47591C24.434 2.81901 24.3666 3.14357 24.2317 3.44958C24.0969 3.74632 23.914 4.00596 23.6828 4.22851C23.4517 4.45107 23.1821 4.62726 22.8739 4.75708C22.5658 4.8869 22.2384 4.95181 21.8917 4.95181C21.5258 4.95181 21.1839 4.8869 20.8661 4.75708C20.558 4.62726 20.2883 4.45107 20.0572 4.22851C19.8261 4.00596 19.6431 3.74632 19.5083 3.44958C19.3831 3.14357 19.3205 2.81901 19.3205 2.47591Z" fill="#52525B"/>
<path d="M38.6343 20.7809C38.095 21.0777 37.5558 21.2909 37.0165 21.4208C36.4772 21.5506 35.9283 21.6155 35.3698 21.6155C34.2142 21.6155 33.1501 21.4254 32.1775 21.0452C31.2049 20.665 30.3623 20.1411 29.6497 19.4734C28.9467 18.7965 28.3978 17.999 28.003 17.081C27.6082 16.1629 27.4107 15.1661 27.4107 14.0904C27.4107 13.0796 27.5985 12.1292 27.9741 11.2389C28.3593 10.3395 28.8937 9.55589 29.5775 8.88823C30.2612 8.21129 31.0797 7.67809 32.0331 7.28862C32.9864 6.89916 34.0216 6.69978 35.1387 6.69051C35.8224 6.69978 36.4483 6.76933 37.0165 6.89916C37.5943 7.02898 38.1335 7.20517 38.6343 7.42772V7.12171H43.0111V20.9339C43.0111 22.1487 42.7944 23.1966 42.361 24.0775C41.9277 24.9677 41.3451 25.7003 40.6132 26.2752C39.891 26.8594 39.0484 27.2906 38.0854 27.5688C37.1224 27.8563 36.1113 28 35.052 28C33.7423 28 32.529 27.8284 31.4119 27.4853C30.3045 27.1422 29.3174 26.6786 28.4508 26.0944L30.2564 23.0065C30.9208 23.4145 31.643 23.7344 32.4231 23.9662C33.2031 24.2073 34.0698 24.3279 35.0231 24.3279C35.5431 24.3279 36.0198 24.2722 36.4531 24.161C36.8961 24.0497 37.2765 23.8596 37.5943 23.5907C37.9217 23.331 38.1769 22.9786 38.3599 22.5335C38.5428 22.0884 38.6343 21.5274 38.6343 20.8505V20.7809ZM35.5142 17.7625C36.1883 17.7625 36.795 17.6003 37.3343 17.2757C37.8832 16.9419 38.3165 16.506 38.6343 15.9682L38.6632 12.463C38.3358 11.8788 37.888 11.4151 37.3198 11.072C36.7517 10.7289 36.1354 10.5527 35.4709 10.5435C34.999 10.5527 34.5368 10.6455 34.0842 10.8217C33.6316 10.9886 33.2368 11.2297 32.8997 11.545C32.5723 11.8602 32.3123 12.2358 32.1197 12.6716C31.9271 13.0982 31.8308 13.5758 31.8308 14.1043C31.8308 14.6607 31.9271 15.1661 32.1197 15.6205C32.3123 16.0748 32.5723 16.4597 32.8997 16.775C33.2272 17.0902 33.6123 17.336 34.0553 17.5122C34.5079 17.6791 34.9942 17.7625 35.5142 17.7625Z" fill="#52525B"/>
<path d="M45.1013 7.12171H51.8181V17.7208H53.8982V21.532H45.1013V17.7208H47.3547V10.9329H45.1013V7.12171ZM47.1236 2.47591C47.1236 2.1328 47.1862 1.81288 47.3114 1.51615C47.4462 1.21013 47.6291 0.945852 47.8603 0.723299C48.0914 0.500745 48.361 0.324557 48.6692 0.194734C48.987 0.0649114 49.3288 0 49.6947 0C50.0414 0 50.3688 0.0649114 50.677 0.194734C50.9851 0.324557 51.2548 0.500745 51.4859 0.723299C51.717 0.945852 51.9 1.21013 52.0348 1.51615C52.1696 1.81288 52.237 2.1328 52.237 2.47591C52.237 2.81901 52.1696 3.14357 52.0348 3.44958C51.9 3.74632 51.717 4.00596 51.4859 4.22851C51.2548 4.45107 50.9851 4.62726 50.677 4.75708C50.3688 4.8869 50.0414 4.95181 49.6947 4.95181C49.3288 4.95181 48.987 4.8869 48.6692 4.75708C48.361 4.62726 48.0914 4.45107 47.8603 4.22851C47.6291 4.00596 47.4462 3.74632 47.3114 3.44958C47.1862 3.14357 47.1236 2.81901 47.1236 2.47591Z" fill="#18181B"/>
<path d="M60.9772 7.12171H63.9673V10.766H60.9483L60.9195 16.8584C60.9195 17.2108 60.9483 17.4983 61.0061 17.7208C61.0639 17.9341 61.1458 18.1056 61.2517 18.2355C61.3672 18.3653 61.5021 18.4534 61.6561 18.4998C61.8102 18.5461 61.9884 18.5693 62.1906 18.5693C62.5565 18.5693 62.8791 18.5368 63.1584 18.4719C63.4377 18.3977 63.7169 18.3143 63.9962 18.2216L64.6173 20.9061C64.1262 21.2028 63.5773 21.4393 62.9706 21.6155C62.3736 21.7917 61.661 21.8798 60.8328 21.8798C60.2454 21.8798 59.682 21.7824 59.1428 21.5877C58.6131 21.3929 58.1461 21.1008 57.7416 20.7114C57.3372 20.3126 57.0146 19.8165 56.7738 19.2231C56.5331 18.6296 56.4175 17.9387 56.4271 17.1505L56.4705 10.766H54.3182V7.12171H56.4849L56.5138 3.67213L61.0061 1.61351L60.9772 7.12171Z" fill="#18181B"/>
</svg>
