<svg width="108" height="24" viewBox="0 0 108 24" fill="none" xmlns="http://www.w3.org/2000/svg">
<path d="M0 0.375H13.7461V6.43359H9.9375V3.9375H5.73047V7.67578H9.375V11.0859H5.73047V14.9297H7.60547V18.1406H0V14.9297H1.83984V3.9375H0V0.375Z" fill="#111827"/>
<path d="M13.1836 6H18.6328V14.9297H20.3203V18.1406H13.1836V14.9297H15.0117V9.21094H13.1836V6ZM14.8242 2.08594C14.8242 1.79688 14.875 1.52734 14.9766 1.27734C15.0859 1.01953 15.2344 0.796875 15.4219 0.609375C15.6094 0.421875 15.8281 0.273438 16.0781 0.164062C16.3359 0.0546875 16.6133 0 16.9102 0C17.1914 0 17.457 0.0546875 17.707 0.164062C17.957 0.273438 18.1758 0.421875 18.3633 0.609375C18.5508 0.796875 18.6992 1.01953 18.8086 1.27734C18.918 1.52734 18.9727 1.79688 18.9727 2.08594C18.9727 2.375 18.918 2.64844 18.8086 2.90625C18.6992 3.15625 18.5508 3.375 18.3633 3.5625C18.1758 3.75 17.957 3.89844 17.707 4.00781C17.457 4.11719 17.1914 4.17188 16.9102 4.17188C16.6133 4.17188 16.3359 4.11719 16.0781 4.00781C15.8281 3.89844 15.6094 3.75 15.4219 3.5625C15.2344 3.375 15.0859 3.15625 14.9766 2.90625C14.875 2.64844 14.8242 2.375 14.8242 2.08594Z" fill="#111827"/>
<path d="M29.9531 17.5078C29.5156 17.7578 29.0781 17.9375 28.6406 18.0469C28.2031 18.1562 27.7578 18.2109 27.3047 18.2109C26.3672 18.2109 25.5039 18.0508 24.7148 17.7305C23.9258 17.4102 23.2422 16.9688 22.6641 16.4062C22.0938 15.8359 21.6484 15.1641 21.3281 14.3906C21.0078 13.6172 20.8477 12.7773 20.8477 11.8711C20.8477 11.0195 21 10.2188 21.3047 9.46875C21.6172 8.71094 22.0508 8.05078 22.6055 7.48828C23.1602 6.91797 23.8242 6.46875 24.5977 6.14062C25.3711 5.8125 26.2109 5.64453 27.1172 5.63672C27.6719 5.64453 28.1797 5.70312 28.6406 5.8125C29.1094 5.92188 29.5469 6.07031 29.9531 6.25781V6H33.5039V17.6367C33.5039 18.6602 33.3281 19.543 32.9766 20.2852C32.625 21.0352 32.1523 21.6523 31.5586 22.1367C30.9727 22.6289 30.2891 22.9922 29.5078 23.2266C28.7266 23.4688 27.9062 23.5898 27.0469 23.5898C25.9844 23.5898 25 23.4453 24.0938 23.1562C23.1953 22.8672 22.3945 22.4766 21.6914 21.9844L23.1562 19.3828C23.6953 19.7266 24.2812 19.9961 24.9141 20.1914C25.5469 20.3945 26.25 20.4961 27.0234 20.4961C27.4453 20.4961 27.832 20.4492 28.1836 20.3555C28.543 20.2617 28.8516 20.1016 29.1094 19.875C29.375 19.6562 29.582 19.3594 29.7305 18.9844C29.8789 18.6094 29.9531 18.1367 29.9531 17.5664V17.5078ZM27.4219 14.9648C27.9688 14.9648 28.4609 14.8281 28.8984 14.5547C29.3438 14.2734 29.6953 13.9062 29.9531 13.4531L29.9766 10.5C29.7109 10.0078 29.3477 9.61719 28.8867 9.32812C28.4258 9.03906 27.9258 8.89062 27.3867 8.88281C27.0039 8.89062 26.6289 8.96875 26.2617 9.11719C25.8945 9.25781 25.5742 9.46094 25.3008 9.72656C25.0352 9.99219 24.8242 10.3086 24.668 10.6758C24.5117 11.0352 24.4336 11.4375 24.4336 11.8828C24.4336 12.3516 24.5117 12.7773 24.668 13.1602C24.8242 13.543 25.0352 13.8672 25.3008 14.1328C25.5664 14.3984 25.8789 14.6055 26.2383 14.7539C26.6055 14.8945 27 14.9648 27.4219 14.9648Z" fill="#111827"/>
<path d="M34.6523 6H40.207V7.05469C40.707 6.65625 41.2695 6.33984 41.8945 6.10547C42.5195 5.87109 43.1641 5.75391 43.8281 5.75391C44.75 5.75391 45.5391 5.91797 46.1953 6.24609C46.8594 6.56641 47.3789 7.05859 47.7539 7.72266C48.0117 7.43359 48.3008 7.17188 48.6211 6.9375C48.9492 6.69531 49.2969 6.48828 49.6641 6.31641C50.0312 6.13672 50.4141 6 50.8125 5.90625C51.2188 5.80469 51.6328 5.75391 52.0547 5.75391C53.5391 5.75391 54.6797 6.16406 55.4766 6.98438C56.2734 7.80469 56.6719 9.00391 56.6719 10.582V14.9297H58.3945V18.1406H52.8516V11.1797C52.8516 10.4922 52.6719 9.95312 52.3125 9.5625C51.9609 9.17188 51.4688 8.97656 50.8359 8.97656C50.3984 8.97656 49.9844 9.08203 49.5938 9.29297C49.2109 9.49609 48.8281 9.85156 48.4453 10.3594C48.4531 10.4453 48.457 10.5352 48.457 10.6289C48.457 10.7148 48.457 10.8047 48.457 10.8984V14.9297H50.2148V18.1406H44.6719V11.1562C44.6719 10.8281 44.6211 10.5312 44.5195 10.2656C44.418 10 44.2773 9.77344 44.0977 9.58594C43.918 9.39844 43.7031 9.25391 43.4531 9.15234C43.2109 9.04297 42.9414 8.98438 42.6445 8.97656C42.2539 8.96875 41.8477 9.05469 41.4258 9.23438C41.0117 9.41406 40.6133 9.74609 40.2305 10.2305V14.9297H42.1758V18.1406H34.6289V14.9297H36.4336V9.21094H34.6523V6Z" fill="#111827"/>
<path d="M65.8594 17.4844C65.5859 17.6562 65.3359 17.8047 65.1094 17.9297C64.8828 18.0469 64.6562 18.1406 64.4297 18.2109C64.2031 18.2891 63.9688 18.3438 63.7266 18.375C63.4844 18.4141 63.2188 18.4336 62.9297 18.4336C62.2031 18.4336 61.5508 18.3359 60.9727 18.1406C60.4023 17.9375 59.918 17.6641 59.5195 17.3203C59.1289 16.9688 58.8281 16.5586 58.6172 16.0898C58.4062 15.6133 58.3008 15.0977 58.3008 14.543C58.3008 13.9805 58.4062 13.4609 58.6172 12.9844C58.8359 12.5078 59.1484 12.1016 59.5547 11.7656C59.9609 11.4219 60.457 11.1562 61.043 10.9688C61.6367 10.7734 62.3125 10.6758 63.0703 10.6758C63.625 10.6758 64.1289 10.707 64.582 10.7695C65.043 10.8242 65.4688 10.8945 65.8594 10.9805V10.6055C65.8594 10.3008 65.8008 10.0391 65.6836 9.82031C65.5664 9.59375 65.4023 9.41016 65.1914 9.26953C64.9805 9.12109 64.7266 9.01562 64.4297 8.95312C64.1328 8.88281 63.8086 8.84766 63.457 8.84766C62.7227 8.84766 62.0742 8.92188 61.5117 9.07031C60.957 9.21094 60.4219 9.41797 59.9062 9.69141L58.7812 7.41797C59.5781 6.87109 60.4102 6.45312 61.2773 6.16406C62.1523 5.875 63.0781 5.73047 64.0547 5.73047C64.8125 5.73047 65.5117 5.81641 66.1523 5.98828C66.8008 6.15234 67.3555 6.42578 67.8164 6.80859C68.2773 7.18359 68.6367 7.67578 68.8945 8.28516C69.1602 8.89453 69.293 9.63672 69.293 10.5117V14.9297H70.9219V18.1406H65.8594V17.4844ZM63.1875 15.668C63.7422 15.668 64.2461 15.5781 64.6992 15.3984C65.1523 15.2188 65.5391 15 65.8594 14.7422V13.1953H63.0469C62.8672 13.1953 62.6914 13.2227 62.5195 13.2773C62.3477 13.332 62.1914 13.4102 62.0508 13.5117C61.918 13.6133 61.8086 13.7383 61.7227 13.8867C61.6445 14.0352 61.6055 14.207 61.6055 14.4023C61.6055 14.7617 61.7344 15.0625 61.9922 15.3047C62.2578 15.5469 62.6562 15.668 63.1875 15.668Z" fill="#111827"/>
<path d="M79.4297 6H85.1719V14.9297H86.6367V18.1406H81.4922V17.1094C81.0781 17.4844 80.5938 17.7734 80.0391 17.9766C79.4844 18.1797 78.8438 18.2812 78.1172 18.2812C77.4453 18.2812 76.8125 18.1758 76.2188 17.9648C75.625 17.7539 75.1055 17.4375 74.6602 17.0156C74.2227 16.5859 73.875 16.0508 73.6172 15.4102C73.3672 14.7695 73.2422 14.0156 73.2422 13.1484V9.21094H71.6602V6H77.0273V13.1484C77.0273 13.9609 77.2344 14.5703 77.6484 14.9766C78.0625 15.375 78.6016 15.5742 79.2656 15.5742C79.7344 15.5742 80.1602 15.4297 80.543 15.1406C80.9258 14.8516 81.2031 14.4609 81.375 13.9688V9.21094H79.4297V6Z" fill="#111827"/>
<path d="M91.5 6H93.9258V9.07031H91.4766L91.4531 14.2031C91.4531 14.5 91.4766 14.7422 91.5234 14.9297C91.5703 15.1094 91.6367 15.2539 91.7227 15.3633C91.8164 15.4727 91.9258 15.5469 92.0508 15.5859C92.1758 15.625 92.3203 15.6445 92.4844 15.6445C92.7812 15.6445 93.043 15.6172 93.2695 15.5625C93.4961 15.5 93.7227 15.4297 93.9492 15.3516L94.4531 17.6133C94.0547 17.8633 93.6094 18.0625 93.1172 18.2109C92.6328 18.3594 92.0547 18.4336 91.3828 18.4336C90.9062 18.4336 90.4492 18.3516 90.0117 18.1875C89.582 18.0234 89.2031 17.7773 88.875 17.4492C88.5469 17.1133 88.2852 16.6953 88.0898 16.1953C87.8945 15.6953 87.8008 15.1133 87.8086 14.4492L87.8438 9.07031H86.0977V6H87.8555L87.8789 3.09375L91.5234 1.35938L91.5 6Z" fill="#111827"/>
<path d="M94.6992 12.0234C94.6992 11.1406 94.8594 10.3125 95.1797 9.53906C95.5 8.76562 95.9453 8.08984 96.5156 7.51172C97.0859 6.93359 97.7656 6.47656 98.5547 6.14062C99.3438 5.80469 100.211 5.63672 101.156 5.63672C102.102 5.63672 102.969 5.80469 103.758 6.14062C104.555 6.47656 105.238 6.93359 105.809 7.51172C106.379 8.08984 106.82 8.76562 107.133 9.53906C107.453 10.3125 107.613 11.1406 107.613 12.0234C107.613 12.9062 107.457 13.7383 107.145 14.5195C106.84 15.293 106.402 15.9727 105.832 16.5586C105.27 17.1367 104.59 17.5938 103.793 17.9297C103.004 18.2656 102.125 18.4336 101.156 18.4336C100.18 18.4336 99.293 18.2656 98.4961 17.9297C97.707 17.5938 97.0312 17.1367 96.4688 16.5586C95.9062 15.9805 95.4688 15.3047 95.1562 14.5312C94.8516 13.75 94.6992 12.9141 94.6992 12.0234ZM98.2031 12.0234C98.2031 12.4844 98.2812 12.9102 98.4375 13.3008C98.5938 13.6836 98.8047 14.0156 99.0703 14.2969C99.3438 14.5781 99.6562 14.7969 100.008 14.9531C100.367 15.1094 100.75 15.1875 101.156 15.1875C101.57 15.1875 101.953 15.1133 102.305 14.9648C102.664 14.8086 102.973 14.5898 103.23 14.3086C103.496 14.0273 103.703 13.6953 103.852 13.3125C104 12.9219 104.074 12.4922 104.074 12.0234C104.074 11.5391 104 11.1016 103.852 10.7109C103.703 10.3203 103.496 9.98828 103.23 9.71484C102.973 9.44141 102.664 9.23438 102.305 9.09375C101.953 8.94531 101.57 8.875 101.156 8.88281C100.75 8.875 100.367 8.94531 100.008 9.09375C99.6562 9.23438 99.3438 9.44141 99.0703 9.71484C98.8047 9.98828 98.5938 10.3203 98.4375 10.7109C98.2812 11.1016 98.2031 11.5391 98.2031 12.0234Z" fill="#111827"/>
</svg>
