 <svg
              width="16"
              height="24"
              viewBox="0 0 16 24"
              fill="none"
              xmlns="http://www.w3.org/2000/svg"
            >
              <path
                d="M4.00076 23.9999C6.20831 23.9999 7.99996 22.2079 7.99996 19.9999V15.9999H4.00076C1.7932 15.9999 0.0015564 17.7919 0.0015564 19.9999C0.0015564 22.2079 1.7932 23.9999 4.00076 23.9999Z"
                fill="#0ACF83"
              />
              <path
                d="M0.0015564 12C0.0015564 9.792 1.7932 8 4.00076 8H7.99996V16H4.00076C1.7932 16 0.0015564 14.208 0.0015564 12Z"
                fill="#A259FF"
              />
              <path
                d="M0.00213623 4C0.00213623 1.792 1.79378 0 4.00134 0H8.00054V8H4.00134C1.79378 8 0.00213623 6.208 0.00213623 4Z"
                fill="#F24E1E"
              />
              <path
                d="M8 0H11.9992C14.2067 0 15.9984 1.792 15.9984 4C15.9984 6.208 14.2067 8 11.9992 8H8V0Z"
                fill="#FF7262"
              />
              <path
                d="M15.9984 12C15.9984 14.208 14.2067 16 11.9992 16C9.79164 16 8 14.208 8 12C8 9.792 9.79164 8 11.9992 8C14.2067 8 15.9984 9.792 15.9984 12Z"
                fill="#1ABCFE"
              />
            </svg>