<svg width="108" height="26" viewBox="0 0 108 26" fill="none" xmlns="http://www.w3.org/2000/svg">
<g clip-path="url(#clip0_438:21871)">
<path fill-rule="evenodd" clip-rule="evenodd" d="M9.36432 6.11993H16.6977C20.6351 6.11993 22.1173 8.11324 21.8882 11.0417C21.5096 15.8763 18.5869 18.5511 14.7101 18.5511H12.7527C12.2208 18.5511 11.8631 18.9032 11.7192 19.8572L10.8882 25.4037C10.8333 25.7633 10.644 25.9716 10.36 26H5.75253C5.31904 26 5.16571 25.6687 5.27929 24.9512L8.08846 7.17054C8.19825 6.45878 8.58821 6.11993 9.36432 6.11993Z" fill="#009EE3"/>
<path fill-rule="evenodd" clip-rule="evenodd" d="M41.2023 5.79071C43.6764 5.79071 45.9593 7.13283 45.647 10.4777C45.2684 14.453 43.1388 16.6526 39.7788 16.6621H36.8428C36.4206 16.6621 36.2162 17.0066 36.1064 17.7127L35.5385 21.3226C35.4533 21.8677 35.1732 22.1365 34.7605 22.1365H32.029C31.5936 22.1365 31.4421 21.8583 31.5387 21.2355L33.7932 6.76749C33.9049 6.05573 34.1718 5.79071 34.6583 5.79071H41.1966H41.2023ZM36.7538 13.5368H38.9781C40.3694 13.4838 41.2932 12.5202 41.3859 10.7825C41.4427 9.70917 40.7177 8.94062 39.5649 8.9463L37.4712 8.95576L36.7538 13.5368ZM53.0731 21.0292C53.323 20.802 53.5767 20.6846 53.5407 20.9648L53.4517 21.6349C53.4063 21.9851 53.5445 22.1706 53.8701 22.1706H56.2969C56.7058 22.1706 56.9045 22.0059 57.0048 21.3737L58.5003 11.9883C58.576 11.517 58.4605 11.286 58.1028 11.286H55.4337C55.1933 11.286 55.0759 11.4204 55.0134 11.7877L54.915 12.365C54.8639 12.666 54.7257 12.719 54.597 12.4161C54.1446 11.3447 52.9898 10.8639 51.3789 10.9017C47.6365 10.9794 45.1132 13.8207 44.8425 17.4628C44.6343 20.2795 46.6522 22.4924 49.3137 22.4924C51.2445 22.4924 52.1077 21.9245 53.0807 21.0348L53.0731 21.0292ZM51.0401 19.5848C49.4292 19.5848 48.3066 18.2995 48.5395 16.7245C48.7723 15.1496 50.2791 13.8642 51.89 13.8642C53.5009 13.8642 54.6235 15.1496 54.3906 16.7245C54.1578 18.2995 52.6529 19.5848 51.0401 19.5848ZM63.2498 11.2557H60.7889C60.2816 11.2557 60.0752 11.6343 60.2361 12.1L63.2914 21.0462L60.2948 25.3035C60.0431 25.6594 60.238 25.9831 60.592 25.9831H63.3577C63.5188 26.0017 63.682 25.9736 63.8276 25.9021C63.9733 25.8306 64.0953 25.7188 64.1792 25.5799L73.5759 12.1019C73.8655 11.6873 73.7293 11.2519 73.2541 11.2519H70.6361C70.1875 11.2519 70.0077 11.4299 69.7502 11.8028L65.8318 17.4817L64.0808 11.7895C63.9786 11.445 63.723 11.2557 63.2516 11.2557H63.2498Z" fill="#113984"/>
<path fill-rule="evenodd" clip-rule="evenodd" d="M83.3513 5.79035C85.8254 5.79035 88.1083 7.13247 87.796 10.4774C87.4174 14.4526 85.2878 16.6522 81.9278 16.6617H78.9937C78.5715 16.6617 78.3671 17.0062 78.2573 17.7123L77.6894 21.3222C77.6042 21.8674 77.3241 22.1362 76.9114 22.1362H74.1798C73.7444 22.1362 73.593 21.8579 73.6896 21.2351L75.9479 6.76334C76.0596 6.05158 76.3265 5.78656 76.813 5.78656H83.3513V5.79035ZM78.9028 13.5364H81.127C82.5184 13.4834 83.4421 12.5199 83.5349 10.7821C83.5917 9.70881 82.8667 8.94026 81.7139 8.94593L79.6202 8.9554L78.9028 13.5364ZM95.2221 21.0288C95.472 20.8016 95.7256 20.6843 95.6897 20.9644L95.6007 21.6345C95.5553 21.9847 95.6935 22.1703 96.0191 22.1703H98.4458C98.8547 22.1703 99.0535 22.0056 99.1538 21.3733L100.649 11.9879C100.725 11.5166 100.61 11.2857 100.252 11.2857H97.5864C97.346 11.2857 97.2287 11.4201 97.1662 11.7873L97.0678 12.3646C97.0167 12.6656 96.8785 12.7186 96.7497 12.4158C96.2973 11.3443 95.1426 10.8635 93.5317 10.9014C89.7893 10.979 87.2659 13.8203 86.9953 17.4624C86.787 20.2792 88.8049 22.4921 91.4665 22.4921C93.3973 22.4921 94.2605 21.9242 95.2335 21.0345L95.2221 21.0288ZM93.191 19.5845C91.58 19.5845 90.4575 18.2991 90.6903 16.7242C90.9232 15.1492 92.43 13.8639 94.0409 13.8639C95.6518 13.8639 96.7743 15.1492 96.5415 16.7242C96.3087 18.2991 94.8019 19.5845 93.191 19.5845ZM104.384 22.1854H101.583C101.534 22.1876 101.485 22.179 101.44 22.1602C101.395 22.1414 101.355 22.1129 101.322 22.0767C101.289 22.0406 101.265 21.9976 101.251 21.951C101.237 21.9043 101.233 21.8551 101.24 21.8068L103.701 6.21627C103.724 6.10987 103.783 6.01454 103.868 5.94581C103.952 5.87707 104.057 5.83896 104.166 5.83767H106.968C107.017 5.83549 107.065 5.8441 107.11 5.86288C107.155 5.88167 107.196 5.91016 107.228 5.94633C107.261 5.98249 107.286 6.02544 107.3 6.07211C107.314 6.11877 107.318 6.168 107.311 6.21627L104.85 21.8068C104.827 21.9139 104.769 22.0101 104.684 22.0796C104.599 22.1491 104.494 22.1877 104.384 22.1892V22.1854Z" fill="#009EE3"/>
<path fill-rule="evenodd" clip-rule="evenodd" d="M4.77804 0H12.119C14.1861 0 16.6394 0.0662541 18.2787 1.51438C19.3748 2.48169 19.9502 4.02068 19.8177 5.67892C19.3672 11.284 16.0147 14.4245 11.517 14.4245H7.89766C7.28055 14.4245 6.87356 14.8333 6.6994 15.9388L5.68856 22.375C5.6223 22.7914 5.44247 23.0375 5.12066 23.0678H0.590778C0.08914 23.0678 -0.0888013 22.6892 0.0418139 21.8525L3.29773 1.22286C3.42834 0.393737 3.88455 0 4.77804 0Z" fill="#113984"/>
<path fill-rule="evenodd" clip-rule="evenodd" d="M6.80518 15.2855L8.08672 7.1703C8.19841 6.45854 8.58836 6.1178 9.36448 6.1178H16.6979C17.9113 6.1178 18.8937 6.3071 19.6623 6.6573C18.9259 11.6472 15.6984 14.4185 11.4733 14.4185H7.85956C7.37496 14.4204 7.01908 14.6627 6.80518 15.2855Z" fill="#172C70"/>
</g>
<defs>
<clipPath id="clip0_438:21871">
<rect width="107.318" height="26" fill="white"/>
</clipPath>
</defs>
</svg>
