<svg width="421" height="17" viewBox="0 0 421 17" fill="none" xmlns="http://www.w3.org/2000/svg">
<path d="M163.566 13.168C164.294 13.168 164.971 13.0373 165.596 12.776C166.231 12.5053 166.786 12.132 167.262 11.656C167.738 11.1707 168.111 10.6013 168.382 9.948C168.653 9.28533 168.788 8.562 168.788 7.778C168.788 6.994 168.653 6.27533 168.382 5.622C168.111 4.96867 167.738 4.404 167.262 3.928C166.786 3.44267 166.231 3.06933 165.596 2.808C164.971 2.53733 164.294 2.402 163.566 2.402C162.838 2.402 162.157 2.53267 161.522 2.794C160.897 3.05533 160.346 3.42867 159.87 3.914C159.394 4.39 159.021 4.95933 158.75 5.622C158.479 6.27533 158.344 6.994 158.344 7.778C158.344 8.562 158.479 9.28533 158.75 9.948C159.021 10.6013 159.394 11.1707 159.87 11.656C160.346 12.132 160.897 12.5053 161.522 12.776C162.157 13.0373 162.838 13.168 163.566 13.168ZM163.566 12.118C162.763 12.118 162.054 11.922 161.438 11.53C160.822 11.138 160.337 10.6153 159.982 9.962C159.637 9.29933 159.464 8.57133 159.464 7.778C159.464 7.19 159.562 6.63467 159.758 6.112C159.963 5.58933 160.248 5.12733 160.612 4.726C160.976 4.32467 161.405 4.012 161.9 3.788C162.404 3.564 162.959 3.452 163.566 3.452C164.173 3.452 164.723 3.564 165.218 3.788C165.722 4.012 166.156 4.32467 166.52 4.726C166.884 5.12733 167.164 5.58933 167.36 6.112C167.565 6.63467 167.668 7.19 167.668 7.778C167.668 8.57133 167.491 9.29933 167.136 9.962C166.791 10.6153 166.31 11.138 165.694 11.53C165.078 11.922 164.369 12.118 163.566 12.118ZM170.789 13H171.839V8.38C171.839 7.764 172.002 7.288 172.329 6.952C172.656 6.616 173.09 6.448 173.631 6.448H174.289V5.398H173.813C173.356 5.398 172.959 5.47733 172.623 5.636C172.296 5.79467 172.035 6.01867 171.839 6.308V5.496H170.789V13ZM177.898 15.8H178.948V11.782C179.228 12.2207 179.611 12.5613 180.096 12.804C180.582 13.0467 181.114 13.168 181.692 13.168C182.402 13.168 183.032 13 183.582 12.664C184.142 12.3187 184.581 11.852 184.898 11.264C185.225 10.6667 185.388 9.99467 185.388 9.248C185.388 8.492 185.225 7.82 184.898 7.232C184.581 6.644 184.142 6.182 183.582 5.846C183.032 5.50067 182.402 5.328 181.692 5.328C181.104 5.328 180.577 5.44467 180.11 5.678C179.644 5.91133 179.256 6.22867 178.948 6.63V5.496H177.898V15.8ZM181.636 12.118C181.132 12.118 180.675 11.992 180.264 11.74C179.863 11.488 179.541 11.1473 179.298 10.718C179.065 10.2793 178.948 9.78933 178.948 9.248C178.948 8.70667 179.065 8.22133 179.298 7.792C179.541 7.35333 179.863 7.008 180.264 6.756C180.675 6.504 181.132 6.378 181.636 6.378C182.14 6.378 182.588 6.504 182.98 6.756C183.382 7.008 183.694 7.34867 183.918 7.778C184.152 8.20733 184.268 8.69733 184.268 9.248C184.268 9.78933 184.152 10.2793 183.918 10.718C183.694 11.1473 183.382 11.488 182.98 11.74C182.588 11.992 182.14 12.118 181.636 12.118ZM189.406 13.168C189.985 13.168 190.508 13.0513 190.974 12.818C191.441 12.5847 191.796 12.286 192.038 11.922V13H193.088V7.848C193.088 7.35333 192.967 6.91933 192.724 6.546C192.491 6.16333 192.16 5.86467 191.73 5.65C191.31 5.43533 190.825 5.328 190.274 5.328C189.854 5.328 189.448 5.40733 189.056 5.566C188.664 5.71533 188.314 5.92067 188.006 6.182C187.708 6.44333 187.488 6.73267 187.348 7.05L188.3 7.568C188.468 7.204 188.725 6.91 189.07 6.686C189.416 6.45267 189.817 6.336 190.274 6.336C190.797 6.336 191.222 6.476 191.548 6.756C191.875 7.036 192.038 7.4 192.038 7.848V8.24L189.322 8.688C188.492 8.828 187.885 9.11267 187.502 9.542C187.12 9.97133 186.928 10.4753 186.928 11.054C186.928 11.4647 187.036 11.8287 187.25 12.146C187.465 12.4633 187.759 12.7153 188.132 12.902C188.506 13.0793 188.93 13.168 189.406 13.168ZM188.048 11.012C188.048 10.6667 188.165 10.368 188.398 10.116C188.641 9.864 189.033 9.69133 189.574 9.598L192.038 9.192V9.752C192.038 10.2093 191.931 10.6247 191.716 10.998C191.502 11.3713 191.203 11.67 190.82 11.894C190.438 12.1087 189.99 12.216 189.476 12.216C189.056 12.216 188.711 12.0993 188.44 11.866C188.179 11.6327 188.048 11.348 188.048 11.012ZM195.402 16.08C195.897 16.08 196.317 15.9773 196.662 15.772C197.007 15.576 197.292 15.3147 197.516 14.988C197.749 14.6613 197.941 14.316 198.09 13.952L201.52 5.482H200.358L197.908 11.684L195.458 5.482H194.324L197.32 13L197.054 13.644C196.821 14.1853 196.583 14.5493 196.34 14.736C196.097 14.932 195.747 15.03 195.29 15.03C195.141 15.03 194.991 15.016 194.842 14.988C194.702 14.9693 194.585 14.9553 194.492 14.946V15.926C194.641 15.982 194.791 16.0193 194.94 16.038C195.099 16.066 195.253 16.08 195.402 16.08ZM206.785 13H207.835L209.641 7.064L211.433 13H212.483L215.059 5.496H213.883L211.965 11.39L210.159 5.496H209.109L207.317 11.39L205.399 5.496H204.209L206.785 13ZM216.289 4.11H217.339V2.57H216.289V4.11ZM216.289 13H217.339V5.496H216.289V13ZM222.358 13.084C222.442 13.084 222.554 13.0793 222.694 13.07C222.834 13.0607 222.96 13.042 223.072 13.014V12.062C222.997 12.0713 222.909 12.0807 222.806 12.09C222.703 12.0993 222.615 12.104 222.54 12.104C222.073 12.104 221.751 11.9827 221.574 11.74C221.397 11.4973 221.308 11.1893 221.308 10.816V6.546H222.96V5.496H221.308V3.76H220.258V4.39C220.258 4.70733 220.165 4.97333 219.978 5.188C219.791 5.39333 219.539 5.496 219.222 5.496H218.872V6.546H220.258V10.816C220.258 11.544 220.44 12.104 220.804 12.496C221.168 12.888 221.686 13.084 222.358 13.084ZM224.916 13H225.966V8.534C225.966 7.862 226.153 7.33467 226.526 6.952C226.909 6.56933 227.38 6.378 227.94 6.378C228.5 6.378 228.962 6.56933 229.326 6.952C229.699 7.32533 229.886 7.85267 229.886 8.534V13H230.936V8.128C230.936 7.596 230.81 7.12 230.558 6.7C230.315 6.27067 229.979 5.93467 229.55 5.692C229.13 5.44933 228.654 5.328 228.122 5.328C227.655 5.328 227.235 5.426 226.862 5.622C226.489 5.818 226.19 6.084 225.966 6.42V2.57H224.916V13ZM238.75 13.168C239.217 13.168 239.656 13.084 240.066 12.916C240.477 12.748 240.841 12.5193 241.158 12.23C241.476 11.9407 241.714 11.614 241.872 11.25L240.92 10.732C240.724 11.152 240.435 11.488 240.052 11.74C239.679 11.992 239.245 12.118 238.75 12.118C238.256 12.118 237.808 11.992 237.406 11.74C237.014 11.488 236.702 11.1473 236.468 10.718C236.244 10.2793 236.132 9.78933 236.132 9.248C236.132 8.69733 236.244 8.20733 236.468 7.778C236.702 7.33933 237.014 6.99867 237.406 6.756C237.808 6.504 238.256 6.378 238.75 6.378C239.245 6.378 239.684 6.504 240.066 6.756C240.449 7.008 240.734 7.33467 240.92 7.736L241.872 7.246C241.714 6.87267 241.476 6.546 241.158 6.266C240.841 5.97667 240.477 5.748 240.066 5.58C239.656 5.412 239.217 5.328 238.75 5.328C238.013 5.328 237.364 5.50067 236.804 5.846C236.244 6.182 235.806 6.644 235.488 7.232C235.171 7.82 235.012 8.48733 235.012 9.234C235.012 9.98067 235.171 10.6527 235.488 11.25C235.806 11.838 236.244 12.3047 236.804 12.65C237.364 12.9953 238.013 13.168 238.75 13.168ZM245.748 13.168C246.327 13.168 246.849 13.0513 247.316 12.818C247.783 12.5847 248.137 12.286 248.38 11.922V13H249.43V7.848C249.43 7.35333 249.309 6.91933 249.066 6.546C248.833 6.16333 248.501 5.86467 248.072 5.65C247.652 5.43533 247.167 5.328 246.616 5.328C246.196 5.328 245.79 5.40733 245.398 5.566C245.006 5.71533 244.656 5.92067 244.348 6.182C244.049 6.44333 243.83 6.73267 243.69 7.05L244.642 7.568C244.81 7.204 245.067 6.91 245.412 6.686C245.757 6.45267 246.159 6.336 246.616 6.336C247.139 6.336 247.563 6.476 247.89 6.756C248.217 7.036 248.38 7.4 248.38 7.848V8.24L245.664 8.688C244.833 8.828 244.227 9.11267 243.844 9.542C243.461 9.97133 243.27 10.4753 243.27 11.054C243.27 11.4647 243.377 11.8287 243.592 12.146C243.807 12.4633 244.101 12.7153 244.474 12.902C244.847 13.0793 245.272 13.168 245.748 13.168ZM244.39 11.012C244.39 10.6667 244.507 10.368 244.74 10.116C244.983 9.864 245.375 9.69133 245.916 9.598L248.38 9.192V9.752C248.38 10.2093 248.273 10.6247 248.058 10.998C247.843 11.3713 247.545 11.67 247.162 11.894C246.779 12.1087 246.331 12.216 245.818 12.216C245.398 12.216 245.053 12.0993 244.782 11.866C244.521 11.6327 244.39 11.348 244.39 11.012ZM251.59 13H252.64V8.38C252.64 7.764 252.803 7.288 253.13 6.952C253.456 6.616 253.89 6.448 254.432 6.448H255.09V5.398H254.614C254.156 5.398 253.76 5.47733 253.424 5.636C253.097 5.79467 252.836 6.01867 252.64 6.308V5.496H251.59V13ZM259.708 13.168C260.287 13.168 260.819 13.0467 261.304 12.804C261.79 12.5613 262.172 12.2207 262.452 11.782V13H263.502V2.57H262.452V6.63C262.144 6.22867 261.757 5.91133 261.29 5.678C260.824 5.44467 260.296 5.328 259.708 5.328C258.999 5.328 258.364 5.50067 257.804 5.846C257.254 6.182 256.815 6.644 256.488 7.232C256.171 7.82 256.012 8.492 256.012 9.248C256.012 9.99467 256.171 10.6667 256.488 11.264C256.815 11.852 257.258 12.3187 257.818 12.664C258.378 13 259.008 13.168 259.708 13.168ZM259.764 12.118C259.26 12.118 258.808 11.992 258.406 11.74C258.014 11.488 257.702 11.1473 257.468 10.718C257.244 10.2793 257.132 9.78933 257.132 9.248C257.132 8.69733 257.244 8.20733 257.468 7.778C257.702 7.34867 258.019 7.008 258.42 6.756C258.822 6.504 259.27 6.378 259.764 6.378C260.268 6.378 260.721 6.504 261.122 6.756C261.533 7.008 261.855 7.35333 262.088 7.792C262.331 8.22133 262.452 8.70667 262.452 9.248C262.452 9.78933 262.331 10.2793 262.088 10.718C261.855 11.1473 261.533 11.488 261.122 11.74C260.721 11.992 260.268 12.118 259.764 12.118Z" fill="#6B7280"/>
<line y1="6.5" x2="145" y2="6.5" stroke="#D1D5DB"/>
<line x1="277" y1="6.5" x2="421" y2="6.50001" stroke="#D1D5DB"/>
</svg>
