<svg width="97" height="97" viewBox="0 0 97 97" fill="none" xmlns="http://www.w3.org/2000/svg">
<path d="M7.80459 2.22985L7.80459 51.2882C7.80459 72.2238 24.7789 89.1954 45.7118 89.1954L94.7701 89.1954" stroke="#0C77F8" stroke-width="2" stroke-linecap="round" stroke-linejoin="round" stroke-dasharray="2 5"/>
<path fill-rule="evenodd" clip-rule="evenodd" d="M7.80459 2.69171L13.7059 8.59298C14.1413 9.02839 14.8472 9.02839 15.2826 8.59298C15.718 8.15757 15.718 7.45163 15.2826 7.01621L8.59298 0.326559C8.37527 0.108853 8.08993 -3.28677e-07 7.80459 -3.4115e-07C7.51925 -3.53622e-07 7.23391 0.108853 7.01621 0.326559L0.326553 7.01621C-0.108859 7.45163 -0.108859 8.15757 0.326553 8.59298C0.761965 9.02839 1.46791 9.02839 1.90332 8.59298L7.80459 2.69171Z" fill="#0C77F8"/>
<path fill-rule="evenodd" clip-rule="evenodd" d="M94.3083 89.1955L88.407 83.2942C87.9716 82.8588 87.9716 82.1528 88.407 81.7174C88.8424 81.282 89.5484 81.282 89.9838 81.7174L96.6734 88.4071C96.8911 88.6248 97 88.9101 97 89.1955C97 89.4808 96.8911 89.7661 96.6734 89.9839L89.9838 96.6735C89.5484 97.1089 88.8424 97.1089 88.407 96.6735C87.9716 96.2381 87.9716 95.5322 88.407 95.0967L94.3083 89.1955Z" fill="#0C77F8"/>
</svg>
