<svg width="24" height="20" viewBox="0 0 24 20" fill="none" xmlns="http://www.w3.org/2000/svg">
<path d="M23.9998 2.675C23.0995 3.06618 22.147 3.32389 21.1723 3.44C22.1966 2.84019 22.9669 1.88729 23.3388 0.760002C22.3703 1.3263 21.3125 1.72364 20.2108 1.935C19.7468 1.44877 19.1888 1.06195 18.5707 0.798075C17.9526 0.534195 17.2873 0.39876 16.6153 0.400002C13.8943 0.400002 11.6923 2.57 11.6923 5.245C11.6903 5.61708 11.733 5.98806 11.8193 6.35C9.8681 6.25853 7.95752 5.76079 6.20975 4.88863C4.46198 4.01647 2.9155 2.78908 1.66926 1.285C1.23204 2.02206 1.00082 2.86302 0.999756 3.72C0.999756 5.4 1.87626 6.885 3.19976 7.755C2.41562 7.73639 1.64755 7.52885 0.960756 7.15V7.21C0.960756 9.56 2.66076 11.515 4.91076 11.96C4.48765 12.0728 4.05164 12.1299 3.61376 12.13C3.30305 12.1305 2.99304 12.1004 2.68826 12.04C3.31376 13.965 5.13426 15.365 7.29076 15.405C5.53845 16.7555 3.38707 17.4854 1.17476 17.48C0.782065 17.4794 0.389739 17.456 -0.000244141 17.41C2.25035 18.8471 4.86648 19.6073 7.53676 19.6C16.6048 19.6 21.5588 12.215 21.5588 5.81C21.5588 5.6 21.5533 5.39 21.5433 5.185C22.5048 4.50103 23.3367 3.65106 23.9998 2.675V2.675Z" fill="#242424"/>
</svg>
