<svg width="26" height="26" viewBox="0 0 26 26" fill="none" xmlns="http://www.w3.org/2000/svg">
<path d="M23.1874 7.62423C22.9834 6.49823 22.0114 5.67823 20.8834 5.42223C19.1954 5.06423 16.0714 4.80823 12.6914 4.80823C9.31335 4.80823 6.13935 5.06423 4.44935 5.42223C3.32335 5.67823 2.34935 6.44623 2.14535 7.62423C1.93935 8.90423 1.73535 10.6962 1.73535 13.0002C1.73535 15.3042 1.93935 17.0962 2.19535 18.3762C2.40135 19.5022 3.37335 20.3222 4.49935 20.5782C6.29135 20.9362 9.36335 21.1922 12.7434 21.1922C16.1234 21.1922 19.1954 20.9362 20.9874 20.5782C22.1134 20.3222 23.0854 19.5542 23.2914 18.3762C23.4954 17.0962 23.7514 15.2522 23.8034 13.0002C23.6994 10.6962 23.4434 8.90423 23.1874 7.62423ZM9.92735 16.5842V9.41623L16.1734 13.0002L9.92735 16.5842Z" fill="black"/>
</svg>
